<?xml version="1.0" standalone="no"?><!DOCTYPE svg PUBLIC "-//W3C//DTD SVG 1.1//EN" "http://www.w3.org/Graphics/SVG/1.1/DTD/svg11.dtd"><svg t="1776753385285" class="icon" viewBox="0 0 1024 1024" version="1.1" xmlns="http://www.w3.org/2000/svg" p-id="7893" xmlns:xlink="http://www.w3.org/1999/xlink" width="200" height="200"><path d="M512.662591 866.545922c-211.187887 0-383.052163-171.805948-383.052163-382.989741 0-211.249285 171.864276-383.114584 383.052163-383.114584 211.186863 0 383.051139 171.865299 383.051139 383.114584C895.71373 694.739974 723.849454 866.545922 512.662591 866.545922zM512.662591 132.346237c-193.613626 0-351.146499 157.533896-351.146499 351.20892 0 193.615673 157.532873 351.083054 351.146499 351.083054 193.612603 0 351.144452-157.468404 351.144452-351.083054C863.808066 289.881157 706.275193 132.346237 512.662591 132.346237z" p-id="7894" fill="#8a8a8a"></path><path d="M512.662591 415.258679c-8.78713 0-15.95232-7.16519-15.95232-15.95232L496.71027 167.119205c0-8.78713 7.16519-15.95232 15.95232-15.95232s15.95232 7.16519 15.95232 15.95232l0 232.18613C528.614911 408.092465 521.449721 415.258679 512.662591 415.258679z" p-id="7895" fill="#8a8a8a"></path><path d="M750.831992 499.384681 576.16181 499.384681c-8.786107 0-15.954367-7.16826-15.954367-15.95232 0-8.78713 7.16826-15.953344 15.954367-15.953344l174.670182 0c8.785084 0 15.953344 7.16519 15.953344 15.953344C766.785336 492.216421 759.617076 499.384681 750.831992 499.384681z" p-id="7896" fill="#8a8a8a"></path><path d="M512.662591 513.093914c-16.32685 0-29.599132-13.337773-29.599132-29.662577 0-16.265452 13.272281-29.53978 29.599132-29.53978 16.325827 0 29.599132 13.274328 29.599132 29.53978C542.261723 499.756141 528.988418 513.093914 512.662591 513.093914z" p-id="7897" fill="#8a8a8a"></path></svg>