<?xml version="1.0" encoding="utf-8"?>
<!DOCTYPE svg PUBLIC "-//W3C//DTD SVG 20010904//EN" "http://www.w3.org/TR/2001/REC-SVG-20010904/DTD/svg10.dtd">
<svg version="1.0" xmlns="http://www.w3.org/2000/svg" width="602pt" height="602pt" viewBox="0 0 602 602" style="" preserveAspectRatio="xMidYMid meet">
<g fill="#FFFFFFFF" stroke="#FFFFFFFF">
<path d="M 272.500 2.585 C 270.850 2.804 265.450 3.475 260.500 4.077 C 231.167 7.639 195.123 18.859 166.000 33.493 C 122.931 55.135 83.182 89.651 54.863 130.000 C 29.005 166.844 10.916 213.112 3.843 260.500 C 1.997 272.867 1.997 329.133 3.843 341.500 C 10.916 388.888 29.005 435.156 54.863 472.000 C 74.292 499.682 102.318 527.708 130.000 547.137 C 166.844 572.995 213.112 591.084 260.500 598.157 C 272.867 600.003 329.133 600.003 341.500 598.157 C 388.888 591.084 435.156 572.995 472.000 547.137 C 499.682 527.708 527.708 499.682 547.137 472.000 C 572.995 435.156 591.084 388.888 598.157 341.500 C 600.003 329.133 600.003 272.867 598.157 260.500 C 591.084 213.112 572.995 166.844 547.137 130.000 C 527.708 102.318 499.682 74.292 472.000 54.863 C 442.065 33.853 404.121 17.102 368.054 8.974 C 343.397 3.417 337.659 2.822 305.500 2.493 C 289.000 2.325 274.150 2.366 272.500 2.585 M 391.500 92.853 C 416.914 99.365 430.644 106.779 437.300 117.583 C 441.076 123.714 447.802 140.062 449.485 147.198 C 452.240 158.886 451.127 179.857 447.360 187.237 C 441.496 198.722 431.081 203.721 401.000 209.489 C 389.524 211.690 382.851 212.232 356.500 213.106 C 339.450 213.671 315.223 213.991 302.662 213.817 L 279.824 213.500 277.412 210.694 C 274.273 207.043 274.211 202.090 277.267 199.219 C 279.498 197.123 280.302 197.080 327.287 196.559 C 377.973 195.998 384.580 195.492 408.000 190.387 C 431.018 185.370 433.522 182.725 433.464 163.500 C 433.428 151.654 433.370 151.359 428.990 140.535 C 421.567 122.189 418.820 119.739 398.000 112.894 C 386.237 109.026 384.527 108.736 369.000 107.971 C 351.058 107.086 309.859 108.351 302.441 110.013 C 295.299 111.614 286.475 115.624 275.000 122.484 C 269.225 125.937 260.267 131.134 255.092 134.033 C 234.770 145.422 216.949 167.628 212.002 187.727 C 210.950 192.002 209.372 203.150 208.495 212.500 C 207.619 221.850 205.339 237.600 203.431 247.500 C 199.343 268.702 197.577 288.160 198.352 303.469 C 198.659 309.536 199.354 328.692 199.897 346.037 C 200.991 380.972 201.872 387.301 207.272 399.000 C 209.177 403.125 211.044 407.496 211.423 408.714 C 212.561 412.373 220.413 418.498 226.182 420.228 C 229.107 421.105 233.525 422.602 236.000 423.554 C 239.702 424.978 245.066 425.371 266.250 425.770 C 285.934 426.140 292.000 425.971 292.000 425.050 C 292.000 424.387 294.514 419.718 297.587 414.673 C 300.660 409.628 307.561 398.075 312.924 389.000 C 331.842 356.982 335.713 352.000 341.677 352.000 C 349.756 352.000 354.300 361.200 357.863 384.776 C 358.884 391.528 359.937 397.271 360.205 397.538 C 361.039 398.372 369.997 389.919 373.953 384.563 C 378.994 377.740 381.533 372.590 383.390 365.426 C 385.068 358.948 388.523 331.890 389.509 317.500 C 389.848 312.550 390.771 300.625 391.560 291.000 C 393.549 266.746 393.560 248.237 391.591 239.185 C 389.771 230.815 389.557 224.696 390.992 222.014 C 391.538 220.995 393.536 219.648 395.431 219.023 C 398.226 218.100 399.444 218.178 401.875 219.436 C 403.524 220.288 405.132 221.405 405.449 221.918 C 406.665 223.884 411.002 247.521 411.041 252.388 L 411.081 257.500 414.107 254.000 C 422.354 244.460 432.065 230.524 443.878 211.275 C 451.042 199.601 457.779 188.801 458.849 187.275 C 459.918 185.749 465.053 177.975 470.260 170.000 C 485.236 147.061 491.424 141.276 498.053 144.022 C 502.139 145.715 504.337 150.357 506.890 162.692 C 508.411 170.038 509.000 176.544 509.000 185.988 C 509.000 198.566 508.902 199.189 506.545 201.545 C 503.329 204.762 497.580 204.894 494.314 201.826 C 492.156 199.798 491.993 198.839 491.900 187.576 C 491.738 167.969 492.300 167.867 477.888 190.104 C 470.973 200.772 462.705 213.775 459.514 219.000 C 447.370 238.886 443.161 245.008 429.953 262.000 C 408.360 289.778 409.265 288.046 408.018 304.000 C 405.661 334.159 402.813 358.512 400.428 368.903 C 397.180 383.051 384.873 401.494 372.985 410.029 C 361.664 418.157 362.625 416.501 363.986 425.545 C 365.505 435.638 375.074 475.186 375.889 474.739 C 376.225 474.555 380.775 472.321 386.000 469.775 C 391.225 467.229 396.850 464.216 398.500 463.080 C 402.974 459.998 407.282 460.359 410.411 464.077 C 416.425 471.223 411.868 477.065 393.821 485.345 C 389.794 487.192 384.258 490.570 381.518 492.852 C 372.305 500.524 364.959 497.554 360.537 484.370 C 356.992 473.799 350.361 447.847 348.434 437.000 C 347.505 431.775 346.602 427.337 346.427 427.137 C 346.252 426.938 341.632 428.867 336.161 431.425 C 330.690 433.982 321.632 437.633 316.031 439.537 L 305.848 443.000 281.424 443.000 C 267.991 443.000 257.004 443.338 257.009 443.750 C 257.025 445.065 261.874 465.226 264.009 472.857 C 265.142 476.903 267.156 488.378 268.485 498.357 C 269.815 508.336 271.822 521.900 272.946 528.500 C 274.070 535.100 274.992 544.458 274.995 549.295 C 274.999 557.135 274.751 558.340 272.708 560.383 C 270.620 562.470 269.171 562.738 256.458 563.382 L 242.500 564.089 240.250 561.489 C 238.906 559.935 238.000 557.572 238.000 555.619 C 238.000 550.700 241.463 548.060 250.066 546.421 C 254.038 545.664 257.378 544.922 257.487 544.773 C 257.596 544.623 255.753 531.000 253.391 514.500 C 249.474 487.128 247.996 479.467 243.456 463.000 C 242.622 459.975 241.367 454.164 240.667 450.088 L 239.394 442.675 233.447 440.919 C 205.662 432.711 201.161 428.767 190.168 403.000 C 184.740 390.278 183.967 385.006 182.986 354.000 C 180.899 288.046 180.875 287.649 178.936 285.500 C 177.944 284.400 175.340 279.600 173.150 274.834 C 170.960 270.067 167.635 263.767 165.760 260.834 C 163.885 257.900 159.796 249.806 156.672 242.846 C 153.549 235.886 144.882 219.461 137.413 206.346 C 124.677 183.983 121.506 178.987 120.728 180.060 C 120.553 180.302 118.744 182.975 116.708 186.000 C 110.233 195.622 105.646 200.000 102.039 200.000 C 98.102 200.000 93.000 195.307 93.000 191.686 C 93.000 190.329 94.571 187.032 96.491 184.359 C 98.412 181.687 102.534 175.721 105.652 171.102 C 113.512 159.458 116.605 156.165 120.337 155.465 C 125.230 154.547 128.646 156.375 131.067 161.210 C 132.248 163.569 135.223 168.650 137.677 172.500 C 146.613 186.519 167.669 224.777 172.349 235.500 C 174.990 241.550 178.555 248.702 180.272 251.394 C 182.948 255.590 183.501 256.017 184.156 254.394 C 185.849 250.195 189.889 225.682 190.979 213.000 C 193.414 184.670 197.493 171.000 208.320 154.896 C 215.092 144.824 229.825 129.417 237.225 124.670 C 247.951 117.789 275.818 101.954 283.221 98.533 C 298.105 91.657 313.599 89.967 357.000 90.486 C 379.758 90.758 384.630 91.092 391.500 92.853 M 377.545 140.455 C 380.333 143.243 380.670 146.803 378.537 150.928 C 374.628 158.487 363.000 155.173 363.000 146.500 C 363.000 141.623 366.623 138.000 371.500 138.000 C 373.979 138.000 375.851 138.760 377.545 140.455 M 314.545 145.455 C 318.592 149.501 317.785 156.025 312.928 158.537 C 308.732 160.707 306.181 160.335 302.923 157.077 C 297.284 151.438 300.627 143.000 308.500 143.000 C 310.979 143.000 312.851 143.760 314.545 145.455 "/></g>
<g fill="#000000FF" stroke="#000000FF">
<path d="M 320.500 92.082 C 295.838 93.465 288.082 95.947 263.740 110.244 C 255.071 115.335 245.179 121.075 241.757 123.000 C 234.798 126.915 218.758 142.227 212.112 151.300 C 206.691 158.700 200.560 170.060 198.051 177.351 C 195.351 185.201 194.289 191.529 192.523 210.312 C 191.039 226.086 185.341 259.045 184.114 258.955 C 182.757 258.855 175.854 246.461 170.949 235.319 C 165.755 223.522 143.895 184.092 134.802 170.122 C 132.161 166.064 130.000 162.159 130.000 161.444 C 130.000 159.578 125.106 155.994 122.615 156.035 C 118.004 156.113 114.773 159.450 104.743 174.500 C 102.177 178.350 98.860 182.985 97.372 184.800 C 93.772 189.191 93.778 193.552 97.389 196.658 C 98.886 197.946 101.057 199.000 102.212 199.000 C 104.695 199.000 112.310 191.041 117.156 183.381 C 118.995 180.474 120.833 178.074 121.240 178.048 C 123.191 177.921 149.740 224.694 157.047 241.132 C 159.826 247.384 163.857 255.425 166.005 259.000 C 168.153 262.575 171.714 269.355 173.918 274.068 C 176.122 278.780 178.782 283.730 179.829 285.068 C 181.922 287.741 182.064 289.996 183.933 350.000 C 184.915 381.528 185.715 388.577 189.417 398.312 C 196.316 416.449 202.482 426.045 210.373 430.921 C 214.165 433.265 231.030 439.436 236.303 440.409 C 238.394 440.795 240.257 441.648 240.442 442.305 C 240.628 442.962 241.671 448.000 242.761 453.500 C 243.850 459.000 246.106 468.900 247.774 475.500 C 249.441 482.100 251.760 494.475 252.926 503.000 C 254.092 511.525 255.956 524.536 257.068 531.914 C 258.565 541.852 258.791 545.511 257.938 546.038 C 257.305 546.430 254.321 547.039 251.307 547.394 C 245.129 548.120 240.544 550.141 239.621 552.545 C 238.395 555.739 239.042 558.690 241.465 560.967 C 243.760 563.123 244.401 563.226 250.715 562.450 C 254.447 561.991 260.149 561.723 263.386 561.855 C 268.289 562.054 269.666 561.723 271.636 559.873 C 273.708 557.926 274.000 556.738 274.000 550.259 C 274.000 546.193 273.103 537.096 272.007 530.043 C 270.910 522.989 268.857 509.018 267.445 498.994 C 266.032 488.970 263.741 476.434 262.353 471.135 C 258.678 457.106 256.055 445.753 256.026 443.750 C 256.002 442.130 257.821 442.000 280.443 442.000 L 304.885 442.000 315.193 438.611 C 320.862 436.747 330.359 432.942 336.298 430.154 C 343.500 426.774 347.229 425.488 347.497 426.293 C 347.717 426.957 348.624 431.550 349.513 436.500 C 351.521 447.688 356.146 466.345 360.163 479.457 C 362.478 487.014 364.007 490.207 366.507 492.707 C 371.055 497.255 374.382 497.080 380.820 491.954 C 383.615 489.729 389.998 485.900 395.004 483.445 C 406.178 477.966 409.531 475.547 411.056 471.864 C 412.035 469.501 411.951 468.574 410.566 466.460 C 409.647 465.057 407.752 463.389 406.356 462.753 C 404.193 461.767 403.131 461.979 399.159 464.193 C 396.597 465.621 390.129 469.032 384.787 471.773 L 375.075 476.757 374.066 473.628 C 371.135 464.538 364.895 438.073 363.362 428.232 L 361.607 416.964 364.001 415.287 C 383.340 401.741 394.469 387.216 398.959 369.659 C 401.220 360.821 404.435 334.745 406.458 308.842 L 407.916 290.184 412.920 282.842 C 415.672 278.804 422.726 269.425 428.594 262.000 C 440.671 246.718 445.595 239.623 456.005 222.500 C 467.299 203.923 490.122 169.000 490.969 169.000 C 492.147 169.000 493.000 177.252 493.000 188.640 C 493.000 197.667 493.257 199.257 495.000 201.000 C 497.699 203.699 503.111 203.642 505.595 200.888 C 507.300 198.997 507.491 197.188 507.416 183.638 C 507.348 171.581 506.876 166.626 505.092 159.291 C 502.343 147.988 500.260 144.990 495.177 145.027 C 489.496 145.068 484.352 150.366 472.871 168.000 C 469.827 172.675 464.388 181.000 460.785 186.500 C 457.181 192.000 449.842 203.700 444.475 212.500 C 432.257 232.533 429.304 236.863 418.612 250.416 L 410.000 261.333 410.000 255.261 C 410.000 246.170 405.415 223.970 403.048 221.604 C 400.608 219.163 395.645 219.106 393.013 221.488 C 390.408 223.846 390.423 228.046 393.082 240.640 C 394.825 248.900 395.064 252.528 394.551 263.000 C 392.873 297.248 387.431 354.267 384.825 364.905 C 382.149 375.827 372.324 390.648 363.686 396.791 C 358.282 400.634 359.278 402.524 356.156 382.500 C 353.663 366.509 351.490 359.644 347.735 355.889 C 342.055 350.208 336.788 352.634 329.236 364.407 C 322.141 375.469 308.869 397.537 303.020 408.000 C 300.099 413.225 296.649 418.892 295.354 420.594 C 294.059 422.296 293.000 424.486 293.000 425.460 C 293.000 427.123 291.354 427.204 266.250 426.777 C 245.276 426.420 238.636 425.986 235.500 424.767 C 233.300 423.912 229.925 422.651 228.000 421.965 C 215.580 417.536 213.649 415.780 208.228 404.000 C 200.399 386.985 200.009 384.698 198.930 349.500 C 198.442 333.550 197.752 313.075 197.399 304.000 C 196.628 284.217 197.815 270.132 202.033 249.000 C 203.734 240.475 205.993 224.950 207.053 214.500 C 209.309 192.250 210.043 188.365 213.833 178.606 C 220.185 162.247 237.862 142.218 253.563 133.588 C 258.478 130.887 266.897 126.016 272.271 122.764 C 284.440 115.399 294.907 110.560 301.795 109.114 C 310.086 107.373 349.962 105.712 366.126 106.435 C 393.083 107.640 415.645 115.323 423.101 125.836 C 424.530 127.851 427.634 134.225 429.998 140.000 C 433.790 149.265 434.353 151.658 434.786 160.344 C 435.680 178.277 432.894 184.080 421.514 187.995 C 414.906 190.269 395.692 194.295 383.538 195.953 C 379.159 196.550 354.215 197.283 328.106 197.582 C 300.600 197.896 279.877 198.531 278.830 199.091 C 276.511 200.332 275.456 204.550 276.629 207.890 C 278.450 213.075 280.911 213.281 332.364 212.574 C 376.306 211.969 380.169 211.770 394.336 209.378 C 428.401 203.627 440.109 198.547 446.025 186.951 C 450.881 177.433 451.227 154.385 446.708 141.500 C 439.077 119.741 432.105 110.097 419.371 103.690 C 409.799 98.873 390.164 93.211 378.933 92.028 C 368.197 90.897 341.171 90.922 320.500 92.082 M 342.457 391.500 C 343.394 398.100 344.400 404.707 344.692 406.183 C 345.189 408.691 344.680 409.140 336.862 413.095 C 327.459 417.851 312.748 424.082 312.205 423.539 C 311.530 422.863 326.494 396.801 337.723 379.096 C 339.860 375.728 340.428 377.217 342.457 391.500 "/></g>
<g fill="#FFFFFFFF" stroke="#FFFFFFFF">
<path d="M 329.310 395.250 C 317.894 414.315 313.626 422.000 314.456 422.000 C 315.505 422.000 338.965 411.253 341.403 409.656 L 343.637 408.191 341.879 395.846 C 340.911 389.056 340.093 382.713 340.060 381.750 C 340.027 380.788 339.649 380.000 339.221 380.000 C 338.792 380.000 334.332 386.863 329.310 395.250 "/></g>
<g fill="#000000FF" stroke="#000000FF">
<path d="M 303.455 146.455 C 299.008 150.901 301.258 157.368 307.684 158.609 C 310.252 159.105 311.364 158.727 313.434 156.657 C 314.868 155.223 316.000 152.948 316.000 151.500 C 316.000 148.166 311.834 144.000 308.500 144.000 C 307.075 144.000 304.805 145.105 303.455 146.455 "/></g>
<g fill="#000000FF" stroke="#000000FF">
<path d="M 366.455 141.455 C 363.286 144.623 363.327 148.418 366.566 151.657 C 368.636 153.727 369.748 154.105 372.316 153.609 C 376.099 152.878 379.000 149.725 379.000 146.344 C 379.000 143.143 374.768 139.000 371.500 139.000 C 370.075 139.000 367.805 140.105 366.455 141.455 "/></g>
</svg>
